<svg width="900" height="900" viewBox="0 0 900 900" fill="none" xmlns="http://www.w3.org/2000/svg">
  <rect width="900" height="900" fill="#06070D"/>
  <rect width="900" height="900" fill="url(#bg)"/>
  <circle cx="222" cy="184" r="110" fill="#24DFFF" fill-opacity="0.18"/>
  <circle cx="681" cy="232" r="160" fill="#FF58D8" fill-opacity="0.12"/>
  <path d="M0 502L179 468L334 513L533 442L684 515L900 455V900H0V502Z" fill="#090A14"/>
  <path d="M0 552L194 530L324 576L521 500L707 590L900 530V900H0V552Z" fill="#10142A"/>
  <rect x="172" y="352" width="15" height="218" rx="7.5" fill="#24DFFF"/>
  <rect x="405" y="315" width="18" height="255" rx="9" fill="#C386FF"/>
  <rect x="622" y="338" width="16" height="232" rx="8" fill="#24DFFF"/>
  <path d="M614 441C555 430 512 458 481 512C530 509 561 493 612 463C652 439 692 437 734 448C711 425 668 417 614 441Z" fill="#101524"/>
  <path d="M605 467C557 474 525 500 500 531C537 528 569 516 612 492C651 470 686 468 724 476C705 460 657 457 605 467Z" fill="#24DFFF" fill-opacity="0.35"/>
  <path d="M0 900V722C145 705 296 722 401 756C533 798 669 820 777 804C839 794 882 782 900 777V900H0Z" fill="url(#fog)"/>
  <defs>
    <linearGradient id="bg" x1="450" y1="0" x2="450" y2="900" gradientUnits="userSpaceOnUse">
      <stop stop-color="#171D38"/>
      <stop offset="0.55" stop-color="#0A0B14"/>
      <stop offset="1" stop-color="#05060B"/>
    </linearGradient>
    <linearGradient id="fog" x1="450" y1="722" x2="450" y2="900" gradientUnits="userSpaceOnUse">
      <stop stop-color="#24DFFF" stop-opacity="0"/>
      <stop offset="1" stop-color="#0B1020"/>
    </linearGradient>
  </defs>
</svg>
